<mxfile host="app.diagrams.net" modified="2022-02-07T18:30:28.130Z" agent="5.0 (Windows NT 10.0; Win64; x64) AppleWebKit/537.36 (KHTML, like Gecko) Chrome/98.0.4758.80 Safari/537.36 Edg/98.0.1108.43" etag="IpdBWaFLD7hg87WYwfyy" version="16.5.3" type="github">
  <diagram id="4YNreh6D3ukguLSVb11b" name="Page-1">
    <mxGraphModel dx="1289" dy="772" grid="1" gridSize="10" guides="1" tooltips="1" connect="1" arrows="1" fold="1" page="1" pageScale="1" pageWidth="850" pageHeight="1100" math="0" shadow="0">
      <root>
        <mxCell id="0" />
        <mxCell id="1" parent="0" />
        <mxCell id="KO6rf3eJeLFNpqHpmAwI-3" style="edgeStyle=orthogonalEdgeStyle;rounded=0;orthogonalLoop=1;jettySize=auto;html=1;exitX=0.5;exitY=1;exitDx=0;exitDy=0;exitPerimeter=0;entryX=0.5;entryY=0;entryDx=0;entryDy=0;" edge="1" parent="1" source="KO6rf3eJeLFNpqHpmAwI-1" target="KO6rf3eJeLFNpqHpmAwI-2">
          <mxGeometry relative="1" as="geometry" />
        </mxCell>
        <mxCell id="KO6rf3eJeLFNpqHpmAwI-1" value="Start" style="strokeWidth=2;html=1;shape=mxgraph.flowchart.start_1;whiteSpace=wrap;" vertex="1" parent="1">
          <mxGeometry x="310" y="110" width="100" height="60" as="geometry" />
        </mxCell>
        <mxCell id="KO6rf3eJeLFNpqHpmAwI-7" value="" style="edgeStyle=orthogonalEdgeStyle;rounded=0;orthogonalLoop=1;jettySize=auto;html=1;" edge="1" parent="1" source="KO6rf3eJeLFNpqHpmAwI-2" target="KO6rf3eJeLFNpqHpmAwI-6">
          <mxGeometry relative="1" as="geometry" />
        </mxCell>
        <mxCell id="KO6rf3eJeLFNpqHpmAwI-2" value="a, b, c" style="shape=parallelogram;html=1;strokeWidth=2;perimeter=parallelogramPerimeter;whiteSpace=wrap;rounded=1;arcSize=12;size=0.10714285714285714;" vertex="1" parent="1">
          <mxGeometry x="290" y="200" width="140" height="60" as="geometry" />
        </mxCell>
        <mxCell id="KO6rf3eJeLFNpqHpmAwI-17" style="edgeStyle=orthogonalEdgeStyle;rounded=0;orthogonalLoop=1;jettySize=auto;html=1;exitX=1;exitY=0.5;exitDx=0;exitDy=0;entryX=0.5;entryY=0;entryDx=0;entryDy=0;" edge="1" parent="1" source="KO6rf3eJeLFNpqHpmAwI-6" target="KO6rf3eJeLFNpqHpmAwI-22">
          <mxGeometry relative="1" as="geometry">
            <mxPoint x="480" y="360" as="targetPoint" />
          </mxGeometry>
        </mxCell>
        <mxCell id="KO6rf3eJeLFNpqHpmAwI-18" style="edgeStyle=orthogonalEdgeStyle;rounded=0;orthogonalLoop=1;jettySize=auto;html=1;exitX=0;exitY=0.5;exitDx=0;exitDy=0;entryX=0.5;entryY=0;entryDx=0;entryDy=0;" edge="1" parent="1" source="KO6rf3eJeLFNpqHpmAwI-6" target="KO6rf3eJeLFNpqHpmAwI-21">
          <mxGeometry relative="1" as="geometry">
            <mxPoint x="240" y="370" as="targetPoint" />
          </mxGeometry>
        </mxCell>
        <mxCell id="KO6rf3eJeLFNpqHpmAwI-6" value="a == b == c" style="rhombus;whiteSpace=wrap;html=1;strokeWidth=2;rounded=1;arcSize=12;" vertex="1" parent="1">
          <mxGeometry x="290" y="290" width="140" height="60" as="geometry" />
        </mxCell>
        <mxCell id="KO6rf3eJeLFNpqHpmAwI-19" value="Yes" style="text;html=1;align=center;verticalAlign=middle;resizable=0;points=[];autosize=1;strokeColor=none;fillColor=none;" vertex="1" parent="1">
          <mxGeometry x="250" y="300" width="40" height="20" as="geometry" />
        </mxCell>
        <mxCell id="KO6rf3eJeLFNpqHpmAwI-20" value="No" style="text;html=1;align=center;verticalAlign=middle;resizable=0;points=[];autosize=1;strokeColor=none;fillColor=none;" vertex="1" parent="1">
          <mxGeometry x="430" y="300" width="30" height="20" as="geometry" />
        </mxCell>
        <mxCell id="KO6rf3eJeLFNpqHpmAwI-50" style="edgeStyle=orthogonalEdgeStyle;rounded=0;orthogonalLoop=1;jettySize=auto;html=1;exitX=0.5;exitY=1;exitDx=0;exitDy=0;" edge="1" parent="1" source="KO6rf3eJeLFNpqHpmAwI-21">
          <mxGeometry relative="1" as="geometry">
            <mxPoint x="220" y="760" as="targetPoint" />
            <Array as="points">
              <mxPoint x="220" y="470" />
              <mxPoint x="130" y="470" />
              <mxPoint x="130" y="760" />
            </Array>
          </mxGeometry>
        </mxCell>
        <mxCell id="KO6rf3eJeLFNpqHpmAwI-21" value="&quot;All numbers equel&quot;" style="shape=parallelogram;html=1;strokeWidth=2;perimeter=parallelogramPerimeter;whiteSpace=wrap;rounded=1;arcSize=12;size=0.10714285714285714;" vertex="1" parent="1">
          <mxGeometry x="150" y="370" width="140" height="60" as="geometry" />
        </mxCell>
        <mxCell id="KO6rf3eJeLFNpqHpmAwI-26" style="edgeStyle=orthogonalEdgeStyle;rounded=0;orthogonalLoop=1;jettySize=auto;html=1;exitX=1;exitY=0.5;exitDx=0;exitDy=0;entryX=0.5;entryY=0;entryDx=0;entryDy=0;" edge="1" parent="1" source="KO6rf3eJeLFNpqHpmAwI-22" target="KO6rf3eJeLFNpqHpmAwI-25">
          <mxGeometry relative="1" as="geometry" />
        </mxCell>
        <mxCell id="KO6rf3eJeLFNpqHpmAwI-27" style="edgeStyle=orthogonalEdgeStyle;rounded=0;orthogonalLoop=1;jettySize=auto;html=1;exitX=0;exitY=0.5;exitDx=0;exitDy=0;entryX=0.5;entryY=0;entryDx=0;entryDy=0;" edge="1" parent="1" source="KO6rf3eJeLFNpqHpmAwI-22" target="KO6rf3eJeLFNpqHpmAwI-24">
          <mxGeometry relative="1" as="geometry" />
        </mxCell>
        <mxCell id="KO6rf3eJeLFNpqHpmAwI-22" value="a &amp;gt; b" style="rhombus;whiteSpace=wrap;html=1;strokeWidth=2;rounded=1;arcSize=12;" vertex="1" parent="1">
          <mxGeometry x="430" y="370" width="140" height="60" as="geometry" />
        </mxCell>
        <mxCell id="KO6rf3eJeLFNpqHpmAwI-39" style="edgeStyle=orthogonalEdgeStyle;rounded=0;orthogonalLoop=1;jettySize=auto;html=1;exitX=0.5;exitY=1;exitDx=0;exitDy=0;entryX=0.5;entryY=0;entryDx=0;entryDy=0;" edge="1" parent="1" source="KO6rf3eJeLFNpqHpmAwI-24" target="KO6rf3eJeLFNpqHpmAwI-34">
          <mxGeometry relative="1" as="geometry" />
        </mxCell>
        <mxCell id="KO6rf3eJeLFNpqHpmAwI-40" style="edgeStyle=orthogonalEdgeStyle;rounded=0;orthogonalLoop=1;jettySize=auto;html=1;exitX=0;exitY=0.5;exitDx=0;exitDy=0;entryX=0.5;entryY=0;entryDx=0;entryDy=0;" edge="1" parent="1" source="KO6rf3eJeLFNpqHpmAwI-24" target="KO6rf3eJeLFNpqHpmAwI-30">
          <mxGeometry relative="1" as="geometry" />
        </mxCell>
        <mxCell id="KO6rf3eJeLFNpqHpmAwI-24" value="a &amp;gt; c" style="rhombus;whiteSpace=wrap;html=1;strokeWidth=2;rounded=1;arcSize=12;" vertex="1" parent="1">
          <mxGeometry x="290" y="470" width="140" height="60" as="geometry" />
        </mxCell>
        <mxCell id="KO6rf3eJeLFNpqHpmAwI-37" style="edgeStyle=orthogonalEdgeStyle;rounded=0;orthogonalLoop=1;jettySize=auto;html=1;exitX=0.5;exitY=1;exitDx=0;exitDy=0;entryX=0.5;entryY=0;entryDx=0;entryDy=0;" edge="1" parent="1" source="KO6rf3eJeLFNpqHpmAwI-25" target="KO6rf3eJeLFNpqHpmAwI-36">
          <mxGeometry relative="1" as="geometry" />
        </mxCell>
        <mxCell id="KO6rf3eJeLFNpqHpmAwI-38" style="edgeStyle=orthogonalEdgeStyle;rounded=0;orthogonalLoop=1;jettySize=auto;html=1;exitX=0;exitY=0.5;exitDx=0;exitDy=0;entryX=0.5;entryY=0;entryDx=0;entryDy=0;" edge="1" parent="1" source="KO6rf3eJeLFNpqHpmAwI-25" target="KO6rf3eJeLFNpqHpmAwI-35">
          <mxGeometry relative="1" as="geometry" />
        </mxCell>
        <mxCell id="KO6rf3eJeLFNpqHpmAwI-25" value="b &amp;gt; c" style="rhombus;whiteSpace=wrap;html=1;strokeWidth=2;rounded=1;arcSize=12;" vertex="1" parent="1">
          <mxGeometry x="570" y="470" width="140" height="60" as="geometry" />
        </mxCell>
        <mxCell id="KO6rf3eJeLFNpqHpmAwI-28" value="No" style="text;html=1;align=center;verticalAlign=middle;resizable=0;points=[];autosize=1;strokeColor=none;fillColor=none;" vertex="1" parent="1">
          <mxGeometry x="570" y="380" width="30" height="20" as="geometry" />
        </mxCell>
        <mxCell id="KO6rf3eJeLFNpqHpmAwI-29" value="Yes" style="text;html=1;align=center;verticalAlign=middle;resizable=0;points=[];autosize=1;strokeColor=none;fillColor=none;" vertex="1" parent="1">
          <mxGeometry x="390" y="380" width="40" height="20" as="geometry" />
        </mxCell>
        <mxCell id="KO6rf3eJeLFNpqHpmAwI-49" style="edgeStyle=orthogonalEdgeStyle;rounded=0;orthogonalLoop=1;jettySize=auto;html=1;exitX=0.5;exitY=1;exitDx=0;exitDy=0;" edge="1" parent="1" source="KO6rf3eJeLFNpqHpmAwI-30">
          <mxGeometry relative="1" as="geometry">
            <mxPoint x="360" y="760" as="targetPoint" />
            <Array as="points">
              <mxPoint x="220" y="760" />
            </Array>
          </mxGeometry>
        </mxCell>
        <mxCell id="KO6rf3eJeLFNpqHpmAwI-30" value="a" style="shape=parallelogram;html=1;strokeWidth=2;perimeter=parallelogramPerimeter;whiteSpace=wrap;rounded=1;arcSize=12;size=0.10714285714285714;" vertex="1" parent="1">
          <mxGeometry x="150" y="560" width="140" height="60" as="geometry" />
        </mxCell>
        <mxCell id="KO6rf3eJeLFNpqHpmAwI-46" style="edgeStyle=orthogonalEdgeStyle;rounded=0;orthogonalLoop=1;jettySize=auto;html=1;exitX=0.5;exitY=1;exitDx=0;exitDy=0;entryX=0.5;entryY=0;entryDx=0;entryDy=0;entryPerimeter=0;" edge="1" parent="1" source="KO6rf3eJeLFNpqHpmAwI-34" target="KO6rf3eJeLFNpqHpmAwI-45">
          <mxGeometry relative="1" as="geometry" />
        </mxCell>
        <mxCell id="KO6rf3eJeLFNpqHpmAwI-34" value="c" style="shape=parallelogram;html=1;strokeWidth=2;perimeter=parallelogramPerimeter;whiteSpace=wrap;rounded=1;arcSize=12;size=0.10714285714285714;" vertex="1" parent="1">
          <mxGeometry x="290" y="640" width="140" height="60" as="geometry" />
        </mxCell>
        <mxCell id="KO6rf3eJeLFNpqHpmAwI-48" style="edgeStyle=orthogonalEdgeStyle;rounded=0;orthogonalLoop=1;jettySize=auto;html=1;exitX=0.5;exitY=1;exitDx=0;exitDy=0;" edge="1" parent="1" source="KO6rf3eJeLFNpqHpmAwI-35">
          <mxGeometry relative="1" as="geometry">
            <mxPoint x="360" y="760" as="targetPoint" />
            <Array as="points">
              <mxPoint x="500" y="760" />
            </Array>
          </mxGeometry>
        </mxCell>
        <mxCell id="KO6rf3eJeLFNpqHpmAwI-35" value="b" style="shape=parallelogram;html=1;strokeWidth=2;perimeter=parallelogramPerimeter;whiteSpace=wrap;rounded=1;arcSize=12;size=0.10714285714285714;" vertex="1" parent="1">
          <mxGeometry x="430" y="560" width="140" height="60" as="geometry" />
        </mxCell>
        <mxCell id="KO6rf3eJeLFNpqHpmAwI-47" style="edgeStyle=orthogonalEdgeStyle;rounded=0;orthogonalLoop=1;jettySize=auto;html=1;exitX=0.5;exitY=1;exitDx=0;exitDy=0;" edge="1" parent="1" source="KO6rf3eJeLFNpqHpmAwI-36">
          <mxGeometry relative="1" as="geometry">
            <mxPoint x="500" y="760" as="targetPoint" />
            <Array as="points">
              <mxPoint x="640" y="760" />
            </Array>
          </mxGeometry>
        </mxCell>
        <mxCell id="KO6rf3eJeLFNpqHpmAwI-36" value="c" style="shape=parallelogram;html=1;strokeWidth=2;perimeter=parallelogramPerimeter;whiteSpace=wrap;rounded=1;arcSize=12;size=0.10714285714285714;" vertex="1" parent="1">
          <mxGeometry x="570" y="640" width="140" height="60" as="geometry" />
        </mxCell>
        <mxCell id="KO6rf3eJeLFNpqHpmAwI-41" value="Yes" style="text;html=1;align=center;verticalAlign=middle;resizable=0;points=[];autosize=1;strokeColor=none;fillColor=none;" vertex="1" parent="1">
          <mxGeometry x="250" y="480" width="40" height="20" as="geometry" />
        </mxCell>
        <mxCell id="KO6rf3eJeLFNpqHpmAwI-42" value="No" style="text;html=1;align=center;verticalAlign=middle;resizable=0;points=[];autosize=1;strokeColor=none;fillColor=none;" vertex="1" parent="1">
          <mxGeometry x="325" y="530" width="30" height="20" as="geometry" />
        </mxCell>
        <mxCell id="KO6rf3eJeLFNpqHpmAwI-43" value="No" style="text;html=1;align=center;verticalAlign=middle;resizable=0;points=[];autosize=1;strokeColor=none;fillColor=none;" vertex="1" parent="1">
          <mxGeometry x="607.5" y="530" width="30" height="20" as="geometry" />
        </mxCell>
        <mxCell id="KO6rf3eJeLFNpqHpmAwI-44" value="Yes" style="text;html=1;align=center;verticalAlign=middle;resizable=0;points=[];autosize=1;strokeColor=none;fillColor=none;" vertex="1" parent="1">
          <mxGeometry x="532.5" y="480" width="40" height="20" as="geometry" />
        </mxCell>
        <mxCell id="KO6rf3eJeLFNpqHpmAwI-45" value="End" style="strokeWidth=2;html=1;shape=mxgraph.flowchart.start_1;whiteSpace=wrap;" vertex="1" parent="1">
          <mxGeometry x="310" y="790" width="100" height="60" as="geometry" />
        </mxCell>
      </root>
    </mxGraphModel>
  </diagram>
</mxfile>
